<?xml version="1.0" standalone="no"?>
<!DOCTYPE svg PUBLIC "-//W3C//DTD SVG 20010904//EN"
 "http://www.w3.org/TR/2001/REC-SVG-20010904/DTD/svg10.dtd">
<svg version="1.0" xmlns="http://www.w3.org/2000/svg"
 width="1094.000000pt" height="1094.000000pt" viewBox="0 0 1094.000000 1094.000000"
 preserveAspectRatio="xMidYMid meet">
<metadata>
Created by potrace 1.14, written by Peter Selinger 2001-2017
</metadata>
<g transform="translate(0.000000,1094.000000) scale(0.100000,-0.100000)"
fill="#000000" stroke="none">
<path d="M4808 10101 l-666 -668 669 -669 669 -669 669 669 670 670 -669 668
c-367 367 -669 668 -671 667 -2 0 -304 -301 -671 -668z"/>
<path d="M2658 8575 c-3 -3 -15 -8 -28 -10 -27 -5 -465 -119 -535 -140 -27 -8
-122 -33 -210 -55 -234 -61 -335 -87 -379 -100 -21 -7 -47 -14 -57 -16 -11 -2
-27 -6 -36 -8 -10 -2 -142 -37 -295 -77 -222 -59 -275 -76 -273 -88 2 -9 13
-52 25 -96 12 -44 23 -87 25 -95 2 -8 54 -199 115 -425 61 -225 120 -443 130
-482 11 -40 29 -108 41 -150 11 -43 23 -85 25 -93 2 -8 19 -73 39 -145 19 -71
47 -176 62 -231 l26 -101 46 12 c25 7 267 72 536 144 270 73 513 138 540 146
28 8 104 29 170 46 66 17 138 37 160 44 22 7 115 32 208 56 111 29 167 48 167
57 0 8 -54 212 -121 455 -66 243 -122 449 -124 457 -3 13 -18 70 -75 280 -73
266 -124 457 -142 525 -21 80 -30 100 -40 90z"/>
<path d="M8241 8407 c-104 -386 -124 -461 -220 -812 -55 -203 -114 -422 -131
-485 -18 -63 -34 -122 -36 -130 -2 -8 -13 -49 -24 -90 -11 -41 -23 -83 -25
-93 -2 -9 -6 -21 -10 -27 -6 -9 53 -29 230 -75 143 -38 231 -61 390 -104 156
-43 195 -53 211 -57 6 -1 38 -10 70 -19 33 -9 66 -18 74 -20 15 -3 32 -8 220
-60 52 -15 102 -28 110 -30 17 -3 268 -70 320 -85 19 -5 60 -17 90 -26 30 -8
69 -18 86 -20 l31 -5 21 78 c12 43 28 103 36 133 8 30 49 181 90 335 42 154
89 330 106 390 16 61 52 196 80 300 29 105 54 197 56 205 2 8 25 96 52 195 27
99 46 184 41 189 -4 4 -40 16 -81 26 -78 20 -174 45 -438 115 -91 24 -210 56
-265 70 -55 15 -174 46 -265 70 -91 23 -237 62 -325 85 -88 23 -167 44 -175
46 -8 2 -66 17 -128 34 -62 16 -120 30 -130 30 -14 0 -26 -32 -61 -163z"/>
<path d="M1337 4573 c-6 -10 -161 -579 -382 -1403 -91 -340 -104 -386 -110
-402 -9 -24 -6 -25 315 -108 151 -40 309 -81 350 -92 41 -11 149 -39 240 -63
91 -23 260 -68 375 -98 116 -31 264 -70 330 -87 66 -17 141 -37 167 -45 54
-16 49 -21 78 90 10 39 26 96 34 128 58 211 192 702 251 922 30 110 79 292
110 405 31 113 58 213 60 223 2 9 7 22 10 27 3 6 0 12 -7 14 -67 19 -136 38
-423 115 -1196 322 -1377 371 -1386 377 -4 2 -10 1 -12 -3z"/>
<path d="M9505 4544 c-66 -18 -203 -55 -305 -82 -102 -28 -329 -89 -505 -137
-176 -47 -360 -96 -410 -110 -80 -22 -162 -44 -190 -51 -5 -1 -74 -20 -153
-41 l-143 -38 6 -35 c4 -19 20 -84 37 -145 16 -60 31 -117 33 -125 2 -8 16
-58 30 -110 15 -52 42 -153 61 -225 18 -71 95 -355 170 -630 75 -275 139 -515
141 -533 4 -26 9 -31 23 -27 10 3 27 7 37 9 10 2 113 30 228 61 116 31 257 69
315 85 58 15 175 46 260 70 85 23 187 50 225 60 220 60 412 111 495 134 52 14
131 36 175 48 44 12 81 22 82 23 3 1 -52 208 -77 295 -6 19 -46 170 -91 335
-44 165 -89 334 -100 375 -12 41 -22 82 -24 90 -5 21 -71 261 -96 350 -12 41
-23 84 -25 95 -2 11 -21 81 -41 155 l-38 136 -120 -32z"/>
<path d="M4812 2077 c-364 -364 -662 -666 -662 -670 0 -5 299 -308 665 -673
l665 -666 669 669 669 668 -666 668 c-367 367 -669 667 -672 667 -3 0 -303
-298 -668 -663z"/>
</g>
</svg>
