<?xml version="1.0" standalone="no"?>
<!DOCTYPE svg PUBLIC "-//W3C//DTD SVG 20010904//EN"
 "http://www.w3.org/TR/2001/REC-SVG-20010904/DTD/svg10.dtd">
<svg version="1.0" xmlns="http://www.w3.org/2000/svg"
 width="1094.000000pt" height="1094.000000pt" viewBox="0 0 1094.000000 1094.000000"
 preserveAspectRatio="xMidYMid meet">
<metadata>
Created by potrace 1.14, written by Peter Selinger 2001-2017
</metadata>
<g transform="translate(0.000000,1094.000000) scale(0.100000,-0.100000)"
fill="#000000" stroke="none">
<path d="M4807 10112 c-367 -367 -667 -672 -667 -677 0 -6 302 -312 670 -680
l670 -670 670 670 c369 368 670 674 670 680 0 10 -1330 1345 -1340 1345 -3 0
-305 -300 -673 -668z"/>
<path d="M1745 8340 c-615 -162 -901 -242 -903 -251 -3 -15 481 -1815 490
-1825 6 -5 1827 482 1836 491 3 3 -428 1605 -480 1788 -7 23 -17 37 -27 36 -9
0 -421 -108 -916 -239z"/>
<path d="M8280 8575 c0 -3 -111 -413 -246 -911 -135 -498 -244 -907 -242 -909
8 -8 1831 -495 1836 -491 9 10 493 1810 490 1825 -2 10 -280 87 -908 252 -498
132 -911 239 -917 239 -7 0 -13 -2 -13 -5z"/>
<path d="M1327 4568 c-20 -54 -488 -1811 -484 -1821 5 -12 1823 -494 1832
-486 7 7 497 1820 493 1824 -3 3 -1723 469 -1809 490 -18 4 -28 2 -32 -7z"/>
<path d="M8700 4333 c-498 -134 -907 -246 -908 -248 -3 -3 439 -1655 480
-1797 7 -24 17 -38 27 -38 9 1 421 110 916 244 616 166 901 247 903 257 2 11
-402 1527 -474 1777 -8 28 -20 52 -27 51 -7 0 -419 -111 -917 -246z"/>
<path d="M4807 2082 c-367 -367 -667 -672 -667 -677 0 -6 302 -312 670 -680
l670 -670 670 670 c369 368 670 674 670 680 0 10 -1330 1345 -1340 1345 -3 0
-305 -300 -673 -668z"/>
</g>
</svg>
